<?xml version="1.0" encoding="utf-8"?>
<!-- Generator: Adobe Illustrator 25.4.1, SVG Export Plug-In . SVG Version: 6.00 Build 0)  -->
<svg version="1.1" id="图层_1" xmlns="http://www.w3.org/2000/svg" xmlns:xlink="http://www.w3.org/1999/xlink" x="0px" y="0px"
	 viewBox="0 0 100 100" style="enable-background:new 0 0 100 100;" xml:space="preserve">
<style type="text/css">
	.st0{fill:#FD735C;}
	.st1{fill:#211C16;}
	.st2{fill:#2BA84F;}
	.st3{fill:#FF891E;}
	.st4{fill:#FFFFF8;}
	.st5{fill:#FF9BC8;}
</style>
<g>
	<path class="st0" d="M22.7,89.4C22.7,89.4,22.7,89.4,22.7,89.4L22.7,89.4C10.8,81.2,3.4,68.4,2.2,54c-0.1-0.7-0.1-1.4-0.2-2.2v-3.7
		c1.2-25.3,21-45,46.3-46.1h3.5C77,3.1,97,23.1,98,48.3v3.4c-0.7,15.4-8.3,29.3-21,38"/>
	<path class="st1" d="M77,89.7l-1.3,0.8c-1.1-5.4-2.8-10.5-5-15.5c0-0.1-0.1-0.1-0.1-0.1c-2.7,0.6-5.5,0.9-8.3,1
		c-0.7,0-1-0.9-0.4-1.3c0.1-0.1,0.4-0.1,0.7-0.1c0.9,0,1.9-0.1,3.2-0.2c2.8-0.2,5.6-0.9,8.2-1.9c0.1-0.1,0.1-0.1,0-0.2
		c-1.1-0.8-2.1-1.6-3.2-2.4c-0.7-0.6-0.1-1.2,0.5-0.8c1.3,0.9,2.5,1.9,3.7,2.8c0,0,0.1,0,0.1,0c1.4-0.7,2.7-1.6,3.9-2.7
		c0,0,0.1-0.1,0-0.2c0,0,0,0,0,0c-1.5-0.6-3.1-1.1-4.6-1.7c-0.2-0.1-0.3-0.2-0.4-0.4c0,0,0,0,0-0.1c0.1-0.4,0.3-0.5,0.7-0.4
		c1.7,0.6,3.5,1.2,5.2,1.8c0,0,0.1,0,0.1,0c1.1-1.2,2.1-2.6,2.8-4.2c0-0.1,0-0.1-0.1-0.2c0,0,0,0,0,0c-1.9-0.3-3.9-0.4-5.8-0.3
		c0,0-0.1,0-0.1,0c-0.3-0.3-0.3-0.5,0-0.8c0,0,0,0,0.1,0c0.5-0.1,0.8-0.1,1.1-0.1c1.7,0,3.5,0.2,5.2,0.5c0.1,0,0.1,0,0.1-0.1
		c0.8-2.2,1.4-4.4,1.6-6.8c0.3-4.2-0.2-8.7-1.3-12.7c0,0,0,0,0-0.1c2.2-7.8,2.4-15.7,0.8-23.6c0-0.1-0.1-0.1-0.1-0.1
		c-3.7,0.3-7.4,1.3-10.9,2.5c-3.7,1.3-7.3,2.8-10.7,4.7c-0.2,0.1-0.4,0.1-0.5,0c-0.7-0.4-0.4-1.1,0.2-1.4c1-0.5,2-1,3-1.5
		c0.2-0.1,0.2-0.1,0-0.2c-1.3-0.6-2.7-1.1-4-1.5c-0.7-0.2-1.5-0.4-2.3-0.6c-6.8-1.4-14.1-1.3-20.8,0.7c-1.2,0.4-2.4,0.8-3.5,1.4
		c-0.1,0.1-0.1,0.1,0,0.2c1,0.5,2.1,1,3.1,1.5c0.9,0.4,0.5,1.6-0.4,1.4c-0.2-0.1-0.3-0.1-0.4-0.2c-4.3-2.3-8.8-4.1-13.5-5.5
		c-2.6-0.8-5.2-1.3-7.9-1.5c-0.1,0-0.1,0-0.1,0.1c-1.6,7.8-1.4,15.9,0.8,23.6c0,0,0,0,0,0.1c-1.4,4.9-1.9,10.2-1,15.2
		c0.3,1.4,0.6,2.8,1.2,4.2c0,0.1,0.1,0.1,0.1,0.1c1.9-0.4,3.9-0.5,5.8-0.3c0,0,0.1,0,0.1,0c0.6,0.5,0.2,0.9-0.4,0.9
		c-1.7-0.1-3.4,0-5.1,0.3c-0.1,0-0.1,0.1-0.1,0.1c0,0,0,0,0,0c0.7,1.5,1.6,2.8,2.7,4c0,0,0.1,0.1,0.1,0c1.7-0.6,3.4-1.1,5.1-1.6
		c0.2-0.1,0.4,0,0.5,0.2c0.2,0.4-0.2,0.6-0.5,0.7c-1.5,0.4-2.9,0.8-4.3,1.3c-0.1,0-0.1,0.1-0.1,0.2c0,0,0,0,0,0
		c1.1,1.1,2.4,2,3.8,2.7c0,0,0.1,0,0.1,0c1.3-1,2.6-1.9,3.9-2.7c0.6-0.4,1.1,0.3,0.4,0.8c-1.1,0.7-2.2,1.5-3.2,2.3
		c-0.1,0.1-0.1,0.2,0,0.2c2.3,1,4.8,1.6,7.3,2c1.6,0.2,3.1,0.3,4.6,0.3c1.2,0,1.2,1.4,0,1.4c-2.7,0-5.5-0.4-8.2-1
		c-0.1,0-0.1,0-0.1,0.1c-2.2,4.9-3.8,10-5,15.3l-1.3-0.9l0,0c0,0,0,0,0,0c1.1-5.1,2.7-10,4.8-14.8c0-0.1,0-0.1-0.1-0.2c0,0,0,0,0,0
		c-1.1-0.4-2.2-0.8-3.3-1.3c0,0-0.1,0-0.1,0c-1.7,1.3-3.2,2.8-4.6,4.5c-0.1,0.2-0.3,0.2-0.5,0.1c-0.4-0.3-0.3-0.6,0-0.9
		c1.3-1.5,2.6-2.8,4.2-4.1c0.1,0,0.1-0.1,0-0.2c0,0,0,0,0,0c-1.5-0.8-2.8-1.9-4-3.1c0,0-0.1,0-0.1,0c-1.1,0.4-2.2,1-3.2,1.7
		c-0.6,0.4-1.1-0.3-0.5-0.8c0.9-0.6,1.9-1.2,2.9-1.6c0.1,0,0.1-0.1,0.1-0.2c0,0,0,0,0,0c-1.1-1.3-2-2.7-2.7-4.3
		c0-0.1-0.1-0.1-0.1-0.1c-2.6,0.6-5,1.7-7.3,3.1c-0.6,0.4-1.1-0.4-0.6-0.7c2.2-1.5,4.7-2.6,7.5-3.3c0.1,0,0.1-0.1,0.1-0.1
		c0,0,0,0,0,0c-0.8-2.3-1.3-4.6-1.5-6.9c-0.3-4.3,0.1-8.5,1.3-12.7c0,0,0,0,0-0.1c-1.5-5.6-2-11.3-1.6-17c0.2-2.7,0.6-5.4,1.2-8
		c0-0.1,0.1-0.1,0.1-0.1c1.3,0,2.5,0.1,3.8,0.4c4.9,0.8,9.8,2.5,14.4,4.5c0,0,0.1,0,0.1,0c1.4-0.7,2.8-1.4,4.3-1.8
		c1.6-0.5,3.3-1,5-1.3c0.1,0,0.1-0.1,0.1-0.1c0,0,0,0,0,0c-0.3-1.2-0.2-2.4,0.3-3.4c1.2-2.6,4.3-3.7,7-3.9c0,0,0.1,0,0.1-0.1
		l0.1-0.3c0.1-0.1,0-0.2-0.1-0.1c-1.6,0.4-3.2,0.4-4.9,0c-1.2-0.3-2.4-1-2.9-2.3c0,0,0-0.1,0-0.1c1.5-1.3,3.7-2.3,5.7-1.9
		c1.4,0.3,2.5,1.1,3.1,2.5c0.1,0.1,0.1,0.1,0.2,0c0.5-0.7,1-1.2,1.7-1.7c0.2-0.1,0.4-0.2,0.6-0.2c0,0,0.1,0,0.1,0
		c0.4,0.2,0.3,0.5,0,0.7c-0.6,0.4-1.2,0.9-1.6,1.4c-0.4,0.6-0.8,1.2-1.1,1.8c0,0.1,0,0.1,0.1,0.2c0,0,0,0,0.1,0
		c1.7,0,3.2,0.5,4.7,1.3c2.1,1.3,3.3,3.5,2.7,6c0,0.1,0,0.1,0.1,0.1c0,0,0,0,0,0c3.2,0.6,6.2,1.5,9,3.1c0,0,0.1,0,0.1,0
		c4.8-2.1,9.8-3.8,15-4.6c1.1-0.2,2.1-0.2,3.2-0.3c0.1,0,0.1,0,0.1,0.1c0.3,0.9,0.5,1.9,0.6,2.8c1.3,7.4,1,14.7-0.9,22
		c0,0.2,0,0.3,0,0.5c1.2,4.8,1.7,10,0.9,14.8c-0.2,1.6-0.7,3.1-1.3,4.7c0,0.1,0,0.1,0.1,0.2c0,0,0,0,0,0c2.4,0.6,4.6,1.5,6.6,2.9
		c0.5,0.3,0.7,0.8-0.1,1c0,0-0.1,0-0.1,0c-2.1-1.5-4.4-2.5-6.8-3c-0.1,0-0.1,0-0.1,0.1c-0.7,1.6-1.7,3.1-2.8,4.4c0,0.1,0,0.1,0,0.2
		c0,0,0,0,0,0c0.9,0.4,1.7,0.8,2.5,1.2c0.5,0.3,0.6,0.6,0.1,1c0,0-0.1,0-0.1,0l-3.2-1.5c0,0-0.1,0-0.1,0c-1.3,1.2-2.6,2.3-4.2,3.1
		c-0.1,0-0.1,0.1,0,0.2c0,0,0,0,0,0c1.5,1.1,2.8,2.4,4,3.8c0.2,0.2,0.3,0.3,0.3,0.4c0.1,0.5-0.5,0.8-0.8,0.4
		c-1.3-1.6-2.9-2.9-4.5-4.2c0,0-0.1,0-0.1,0c-1,0.5-2,0.9-3.1,1.2c-0.1,0-0.1,0.1-0.1,0.2c0,0,0,0,0,0c1.6,3.7,2.9,7.4,3.9,11.1
		C76.3,86.8,76.6,88.1,77,89.7z M46.6,9.2c0.3-0.3,0.8,0.8,0.9,0.9c0,0,0,0.1,0.1,0.1l0.8,0.2c0.1,0,0.2,0,0.1-0.2l-0.2-0.7
		c0,0,0-0.1,0-0.1c0.3-0.3,0.5,0.9,0.6,1c0,0.1,0,0.1,0.1,0.1l0.9,0.3c0.2,0,0.2,0,0.1-0.2c-0.3-0.8-0.9-1.4-1.6-1.8
		c-1.1-0.6-2.6-0.5-3.8,0c-0.5,0.2-0.9,0.4-1.3,0.7c-0.2,0.1-0.1,0.2,0,0.2l2,0.1c0.2,0,0.2,0,0.1-0.2l0-0.1c0-0.1,0-0.1,0-0.2
		c0.1,0,0.1,0,0.2,0c0.2,0.1,0.1,0.4,0.4,0.5c0.1,0,0.4,0.1,0.9,0.1c0.2,0,0.2,0,0.1-0.2l-0.4-0.6C46.5,9.3,46.5,9.3,46.6,9.2z
		 M44.9,10.7c-0.1-0.1-0.1-0.2,0-0.2c0.1,0,0.2-0.1,0.3-0.1c0.2-0.1,0.2-0.2,0-0.2C44.4,10.1,43.7,10,43,10c-0.2,0-0.2,0.1-0.1,0.2
		c0.2,0.2,0.4,0.4,0.6,0.5c0.7,0.4,1.4,0.6,2.3,0.8c1.2,0.2,2.4,0.1,3.5-0.2c0.3-0.1,0.3-0.2,0-0.2l-0.6-0.2c0,0-0.1,0-0.1,0
		c-0.2,0.2-0.5,0.4-0.8,0.5c-0.1,0.1-0.3,0-0.2-0.2c0,0,0,0,0,0l0.5-0.3c0.2-0.1,0.2-0.2,0-0.2l-0.6-0.2c0,0-0.1,0-0.1,0
		c-0.3,0.3-0.6,0.4-1,0.5c-0.1,0-0.3-0.1-0.2-0.2c0,0,0,0,0.1,0c0.2,0,0.4-0.1,0.5-0.2c0.3-0.1,0.2-0.2,0-0.2l-0.9-0.1
		c0,0-0.1,0-0.1,0C45.5,10.5,45.3,10.7,44.9,10.7C44.9,10.8,44.9,10.8,44.9,10.7z M46,14.1c-2.3,1-3.8,3.1-3.2,5.6
		c0,0.1,0.1,0.1,0.1,0.1c4.7-0.7,9.3-0.7,14,0c0.1,0,0.1,0,0.1-0.1c0.3-1.1,0.2-2.2-0.3-3.1c-1-1.9-3.2-2.9-5.2-3.2
		C49.6,13.2,47.7,13.4,46,14.1z"/>
	<path class="st2" d="M46.6,9.2c0,0,0,0.1,0,0.1L47,9.9c0.1,0.2,0.1,0.2-0.1,0.2c-0.5-0.1-0.8-0.1-0.9-0.1c-0.3-0.1-0.2-0.4-0.4-0.5
		c-0.1,0-0.1,0-0.2,0c0,0-0.1,0.1,0,0.2l0,0.1c0.1,0.1,0,0.2-0.1,0.2l-2-0.1c-0.2,0-0.2-0.1,0-0.2c0.4-0.3,0.8-0.5,1.3-0.7
		c1.2-0.5,2.6-0.6,3.8,0c0.7,0.4,1.3,1,1.6,1.8c0.1,0.2,0,0.2-0.1,0.2l-0.9-0.3c0,0-0.1-0.1-0.1-0.1c0-0.1-0.3-1.3-0.6-1
		c0,0,0,0.1,0,0.1l0.2,0.7c0,0.1,0,0.2-0.1,0.2l-0.8-0.2c0,0-0.1,0-0.1-0.1C47.4,10,46.8,8.9,46.6,9.2z"/>
	<path class="st2" d="M45,10.8c0.3-0.1,0.6-0.2,0.8-0.5c0,0,0.1,0,0.1,0l0.9,0.1c0.3,0,0.3,0.1,0,0.2c-0.2,0.1-0.3,0.1-0.5,0.2
		c0,0-0.1,0-0.1,0c-0.1,0.1,0,0.2,0.2,0.2c0.4,0,0.7-0.2,1-0.5c0,0,0.1,0,0.1,0l0.6,0.2c0.2,0,0.2,0.1,0,0.2l-0.5,0.3c0,0,0,0,0,0
		c-0.1,0.2,0.1,0.2,0.2,0.2c0.3-0.1,0.5-0.3,0.8-0.5c0,0,0.1,0,0.1,0l0.6,0.2c0.3,0.1,0.3,0.2,0,0.2c-1.2,0.4-2.3,0.4-3.5,0.2
		c-0.9-0.1-1.6-0.3-2.3-0.8c-0.2-0.1-0.5-0.3-0.6-0.5C42.8,10.1,42.8,10,43,10c0.7,0,1.4,0.1,2.2,0.1c0.2,0,0.2,0.1,0,0.2
		c-0.1,0-0.2,0.1-0.3,0.1C44.8,10.6,44.7,10.7,45,10.8C44.9,10.8,44.9,10.8,45,10.8z"/>
	<path class="st3" d="M42.8,19.7c-0.6-2.6,0.9-4.7,3.2-5.6c1.7-0.7,3.6-0.9,5.5-0.7c2.1,0.3,4.3,1.3,5.2,3.2c0.5,1,0.6,2,0.3,3.1
		c0,0.1-0.1,0.1-0.1,0.1c-4.7-0.7-9.3-0.7-14,0C42.9,19.8,42.9,19.8,42.8,19.7z M46.8,15.1c0.1,0.1,0.3-0.1,0.4-0.3
		c0.1-0.2,0-0.4-0.1-0.5c0,0,0,0,0,0c-0.1-0.1-0.3,0.1-0.4,0.3C46.6,14.8,46.6,15,46.8,15.1C46.8,15.1,46.8,15.1,46.8,15.1z
		 M52.8,14.8c0-0.1-0.1-0.3-0.3-0.3c0,0,0,0,0,0c-0.1,0-0.3,0.1-0.3,0.3s0.1,0.3,0.3,0.3C52.7,15,52.8,14.9,52.8,14.8
		C52.8,14.8,52.8,14.8,52.8,14.8z M49.8,17.7c0.1-0.1,0-0.3-0.2-0.4c-0.2-0.1-0.4-0.1-0.5,0c0,0,0,0,0,0c-0.1,0.1,0,0.3,0.2,0.4
		C49.5,17.8,49.7,17.8,49.8,17.7z M56.1,18.3c0.1-0.1,0.2-0.3,0.1-0.6c-0.1-0.3-0.3-0.4-0.5-0.4c0,0,0,0,0,0
		c-0.1,0.1-0.2,0.3-0.1,0.6C55.7,18.2,55.9,18.4,56.1,18.3L56.1,18.3z M44.7,19.5c0.2,0,0.3-0.2,0.3-0.4c0,0,0,0,0,0
		c0-0.2-0.1-0.4-0.3-0.4l0,0c-0.2,0-0.3,0.2-0.3,0.4v0C44.4,19.4,44.5,19.5,44.7,19.5C44.7,19.5,44.7,19.5,44.7,19.5z"/>
	<ellipse transform="matrix(0.3939 -0.9191 0.9191 0.3939 14.9081 52.0496)" class="st1" cx="46.9" cy="14.7" rx="0.4" ry="0.3"/>
	<circle class="st1" cx="52.6" cy="14.8" r="0.3"/>
	<ellipse transform="matrix(0.5432 -0.8396 0.8396 0.5432 7.9253 49.5469)" class="st1" cx="49.5" cy="17.5" rx="0.3" ry="0.4"/>
	<ellipse transform="matrix(0.9225 -0.3859 0.3859 0.9225 -2.563 22.939)" class="st1" cx="55.9" cy="17.9" rx="0.3" ry="0.5"/>
	
		<ellipse transform="matrix(0.9996 -2.792161e-02 2.792161e-02 0.9996 -0.5172 1.2551)" class="st1" cx="44.7" cy="19.1" rx="0.3" ry="0.4"/>
	<path class="st4" d="M75.7,90.5c-4.2,2.7-8.6,4.6-13.4,5.9l-0.1,0c0.8-0.4,1.9-1.1,2.4-1.8c0.3-0.4,0.2-0.9-0.5-0.8
		c0,0-0.1,0-0.1,0c-0.4,0.5-1,1-1.7,1.4c-3,1.7-7.6,2.9-9.5-1.1c-2-4.2,2.2-8.3,5.2-10.5c0.2-0.1,0.2-0.3,0.1-0.5
		c-0.3-0.5-0.6-0.2-1,0.1c-2.6,1.9-5.5,5.1-5.7,8.4c-0.1,2.1,0.9,4.3,2.7,5.3c0.4,0.3,0.9,0.5,1.4,0.7c-1.2,0.2-2.5,0.3-3.7,0.3
		h-3.6c-1.4-0.1-2.8-0.2-4.3-0.4l-0.1-0.1c1.6-0.4,2.7-1.4,3.4-2.9c2.2-4.6-2-9.3-5.5-11.8c0,0-0.1,0-0.1,0
		c-0.4,0.1-0.6,0.3-0.4,0.7c0,0,0,0,0,0.1c2.6,1.9,6.2,5.5,5.6,9c-0.5,3.2-3.1,4.7-6.1,4.1c-1.9-0.4-4.4-1.4-5.6-3
		c0,0-0.1-0.1-0.1,0c-1.8,0.7,1.6,2.3,1.6,2.4c-4.5-1.3-8.8-3.2-12.7-5.8c1.1-5.3,2.8-10.4,5-15.3c0-0.1,0.1-0.1,0.1-0.1
		c2.7,0.6,5.5,0.9,8.2,1c1.2,0,1.2-1.4,0-1.4c-1.4,0-2.9-0.1-4.6-0.3c-2.5-0.3-4.9-1-7.3-2c-0.1-0.1-0.1-0.1,0-0.2
		c1.1-0.8,2.1-1.6,3.2-2.3c0.7-0.5,0.2-1.2-0.4-0.8c-1.3,0.9-2.6,1.8-3.9,2.7c0,0-0.1,0-0.1,0c-1.4-0.7-2.6-1.6-3.8-2.7
		c0,0-0.1-0.1,0-0.2c0,0,0,0,0,0c1.4-0.5,2.8-0.9,4.3-1.3c0.4-0.1,0.7-0.3,0.5-0.7c-0.1-0.2-0.3-0.3-0.5-0.2
		c-1.7,0.4-3.4,0.9-5.1,1.6c0,0-0.1,0-0.1,0c-1.1-1.2-2-2.6-2.7-4c0-0.1,0-0.1,0.1-0.2c0,0,0,0,0,0c1.7-0.3,3.4-0.4,5.1-0.3
		c0.6,0,0.9-0.4,0.4-0.9c0,0,0,0-0.1,0c-2-0.1-3.9,0-5.8,0.3c-0.1,0-0.1,0-0.1-0.1c-0.5-1.3-0.9-2.7-1.2-4.2c-0.9-5-0.4-10.3,1-15.2
		c0,0,0,0,0-0.1c-2.2-7.7-2.4-15.8-0.8-23.6c0-0.1,0.1-0.1,0.1-0.1c2.6,0.3,5.3,0.8,7.9,1.5c4.7,1.4,9.2,3.2,13.5,5.5
		c0.1,0,0.2,0.1,0.4,0.2c0.8,0.3,1.2-0.9,0.4-1.4c-1-0.5-2-1-3.1-1.5c-0.1-0.1-0.1-0.1,0-0.2c1.1-0.5,2.3-1,3.5-1.4
		c6.7-2,14-2.2,20.8-0.7c0.8,0.2,1.6,0.4,2.3,0.6c1.4,0.4,2.7,0.9,4,1.5c0.2,0.1,0.2,0.1,0,0.2c-1,0.5-2,1-3,1.5
		c-0.6,0.3-0.9,0.9-0.2,1.4c0.2,0.1,0.4,0.1,0.5,0c3.5-1.8,7.1-3.4,10.7-4.7c3.5-1.2,7.2-2.2,10.9-2.5c0.1,0,0.1,0,0.1,0.1
		c1.7,7.9,1.4,15.8-0.8,23.6c0,0,0,0,0,0.1c1.1,4,1.7,8.5,1.3,12.7c-0.2,2.3-0.7,4.6-1.6,6.8c0,0.1-0.1,0.1-0.1,0.1
		c-1.7-0.3-3.4-0.5-5.2-0.5c-0.3,0-0.7,0-1.1,0.1c0,0,0,0-0.1,0c-0.3,0.3-0.3,0.6,0,0.8c0,0,0.1,0,0.1,0c2-0.1,3.9,0,5.8,0.3
		c0.1,0,0.1,0.1,0.1,0.1c0,0,0,0,0,0c-0.7,1.5-1.7,2.9-2.8,4.2c0,0-0.1,0-0.1,0c-1.7-0.7-3.5-1.3-5.2-1.8c-0.4-0.1-0.6,0-0.7,0.4
		c0,0,0,0,0,0.1c0.1,0.2,0.2,0.3,0.4,0.4c1.6,0.5,3.1,1.1,4.6,1.7c0.1,0,0.1,0.1,0.1,0.2c0,0,0,0,0,0c-1.2,1.1-2.5,1.9-3.9,2.7
		c0,0-0.1,0-0.1,0c-1.2-1-2.5-1.9-3.7-2.8c-0.6-0.5-1.2,0.2-0.5,0.8c1.1,0.8,2.1,1.6,3.2,2.4c0.1,0.1,0.1,0.2,0,0.2
		c-2.6,1-5.4,1.7-8.2,1.9c-1.3,0.1-2.3,0.2-3.2,0.2c-0.3,0-0.5,0-0.7,0.1c-0.6,0.3-0.3,1.3,0.4,1.3c2.8,0,5.6-0.3,8.3-1
		c0.1,0,0.1,0,0.1,0.1C72.9,80,74.6,85.2,75.7,90.5z M25.5,31.5c-0.9-0.7-1.8-1.1-2.8-1.4c0,0-0.1,0-0.1,0c-0.4,0.2-0.5,0.4-0.3,0.8
		c0,0,0,0,0.1,0.1c1,0.4,1.8,0.7,2.7,1.5c0,0,0,0,0,0.1c0.2,0.6-0.4,1.9-0.5,2.3c0,0,0,0.1,0,0.1c0.3,0.7,0.8,0.6,1.1,0
		C26,33.8,26.6,32.3,25.5,31.5z M73.3,35.3C73.3,35.3,73.4,35.3,73.3,35.3c0.5-0.2,0.6-0.4,0.4-0.8c-0.2-0.6-0.4-1.3-0.5-1.9
		c0,0,0-0.1,0-0.1c0.7-0.6,1.4-1,2.2-1.3c0.4-0.2,1-0.4,0.6-0.9c-0.1-0.2-0.3-0.3-0.5-0.2c-0.9,0.3-2.9,1.1-3.2,2.1
		c-0.3,0.8,0.2,2.1,0.5,2.8C73,35.3,73.1,35.2,73.3,35.3z M43.4,54.9c0-4.1-3.3-7.4-7.4-7.4l0,0c-4.1,0-7.4,3.3-7.4,7.4v0
		c0,4.1,3.3,7.4,7.4,7.4S43.4,59,43.4,54.9z M68.2,54.9c0-4.1-3.3-7.4-7.4-7.4h0c-4.1,0-7.4,3.3-7.4,7.4l0,0c0,4.1,3.3,7.4,7.4,7.4
		l0,0C64.9,62.3,68.2,59,68.2,54.9L68.2,54.9z M48.5,65.1c0.4,0.5,0.8,0.8,1.4,0.9c1,0.2,2.7,0,3.4-0.8c0.3-0.3,0.6-1.2,0.3-1.6
		c-0.2-0.2-0.4-0.2-0.7,0c0,0-0.1,0.1-0.1,0.1c0.2,1.4-1.4,1.6-2.3,1.5c-1.5-0.1-1.8-1.6-1.6-2.8c0-0.1,0.1-0.2,0.2-0.3
		c0,0,0-0.1,0-0.1c-0.1-1-2.1-0.4-1.3,0.3c0,0,0,0,0,0.1c0.3,2.4-0.8,3.4-3.1,2.7c-0.6-0.2-0.8-0.6-0.8-1.2c0,0,0,0,0-0.1
		c-0.4-0.7-1-0.1-0.9,0.6c0.3,1.4,1.7,1.9,3.1,1.9c0.9,0,1.6-0.3,2.2-1C48.3,65,48.4,65,48.5,65.1C48.5,65.1,48.5,65.1,48.5,65.1z
		 M57.4,64.5c0-0.1,0-0.2-0.1-0.2l0,0l-0.1,0c-0.1,0-0.2,0-0.2,0.1L56.2,67c0,0.1,0,0.2,0.1,0.2l0.1,0c0.1,0,0.2,0,0.2-0.1
		L57.4,64.5z M58.7,64.5c0-0.1,0-0.2-0.1-0.2l-0.1,0c-0.1,0-0.2,0-0.2,0.1c0,0,0,0,0,0L57,67.6c0,0.1,0,0.2,0.1,0.2l0,0l0.1,0
		c0.1,0,0.2,0,0.2-0.1c0,0,0,0,0,0L58.7,64.5z M32.5,67.3c0.1,0,0.1,0,0.2-0.1c0,0,0,0,0,0c0.2-0.9,0.5-1.7,0.8-2.6
		c0.1-0.2,0.1-0.5-0.3-0.4c0,0-0.1,0-0.1,0.1c-0.3,0.8-0.6,1.7-0.8,2.6C32.3,67.1,32.3,67.2,32.5,67.3z M34.7,64.6
		c0-0.1,0-0.2-0.1-0.3l0,0l0,0c-0.1,0-0.2,0-0.3,0.1l0,0l-1.3,3.2c0,0.1,0,0.2,0.1,0.3l0,0l0,0c0.1,0,0.2,0,0.3-0.1L34.7,64.6z
		 M35.9,64.6c0-0.1,0-0.2-0.1-0.3h0l0,0c-0.1,0-0.2,0-0.3,0.1l0,0L34,68c0,0.1,0,0.2,0.1,0.3h0l0,0c0.1,0,0.2,0,0.3-0.1c0,0,0,0,0,0
		L35.9,64.6z M59.9,64.6c0-0.1,0-0.2-0.1-0.2c0,0,0,0,0,0l-0.1,0c-0.1,0-0.2,0-0.2,0.1L57.9,68c0,0.1,0,0.2,0.1,0.2c0,0,0,0,0,0
		l0.1,0c0.1,0,0.2,0,0.2-0.1L59.9,64.6z M37.7,64.9c0-0.1,0-0.2-0.1-0.2c0,0,0,0,0,0l-0.1,0c-0.1,0-0.2,0-0.2,0.1l-1.1,3
		c0,0.1,0,0.2,0.1,0.2l0,0l0.1,0c0.1,0,0.2,0,0.2-0.1L37.7,64.9z M60.2,67.9c0.2,0.1,0.3,0.1,0.4-0.1c0.2-1,0.8-2,1-2.8
		c0.1-0.3,0-0.4-0.3-0.3c0,0-0.1,0-0.1,0.1c-0.3,1-0.9,2-1.1,3.1C60.2,67.9,60.2,67.9,60.2,67.9z M36.7,65c0-0.1,0-0.2-0.1-0.3
		c0,0,0,0,0,0l0,0c-0.1,0-0.2,0-0.3,0.1l-1.2,2.8c0,0.1,0,0.2,0.1,0.3c0,0,0,0,0,0l0,0c0.1,0,0.2,0,0.3-0.1L36.7,65z M60.6,65
		c0-0.1,0-0.2-0.1-0.3l0,0c-0.1,0-0.2,0-0.3,0.1l0,0L59,67.6c0,0.1,0,0.2,0.1,0.3l0,0c0.1,0,0.2,0,0.3-0.1l0,0L60.6,65z M37.6,67.9
		c0.2,0,0.3-0.2,0.3-0.4c0,0,0,0,0-0.1c0.3-0.6,0.5-1.3,0.8-2c0.1-0.3,0-0.5-0.3-0.3c0,0,0,0-0.1,0.1c-0.2,0.7-0.5,1.3-0.7,2
		c-0.1,0.2-0.1,0.4-0.1,0.6C37.5,67.8,37.6,67.9,37.6,67.9z M62.7,65.4c0-0.1,0-0.2-0.1-0.2l-0.1,0c-0.1,0-0.2,0-0.2,0.1l-0.9,2.4
		c0,0.1,0,0.2,0.1,0.2l0.1,0c0.1,0,0.2,0,0.2-0.1L62.7,65.4z"/>
	<path class="st1" d="M25.5,31.5c1.1,0.8,0.5,2.3,0.2,3.3c-0.2,0.6-0.8,0.7-1.1,0c0,0,0-0.1,0-0.1c0.1-0.3,0.7-1.7,0.5-2.3
		c0,0,0,0,0-0.1c-0.9-0.8-1.7-1-2.7-1.5c0,0,0,0-0.1-0.1c-0.2-0.4-0.1-0.7,0.3-0.8c0,0,0.1,0,0.1,0C23.7,30.4,24.6,30.8,25.5,31.5z"
		/>
	<path class="st1" d="M73.3,35.3c-0.2-0.1-0.3-0.1-0.4-0.3c-0.4-0.8-0.8-2-0.5-2.8c0.3-1,2.3-1.8,3.2-2.1c0.2-0.1,0.4,0,0.5,0.2
		c0.4,0.5-0.2,0.8-0.6,0.9c-0.8,0.3-1.6,0.7-2.2,1.3c0,0,0,0.1,0,0.1c0.1,0.6,0.3,1.3,0.5,1.9C73.9,34.9,73.8,35.2,73.3,35.3
		C73.4,35.3,73.3,35.3,73.3,35.3z"/>
	<path class="st1" d="M43.4,54.9c0,4.1-3.3,7.4-7.4,7.4s-7.4-3.3-7.4-7.4c0-4.1,3.3-7.4,7.4-7.4l0,0C40.1,47.5,43.4,50.8,43.4,54.9
		L43.4,54.9z M32.7,60.4c1.8,1.1,3.7,1.2,5.7,0.5c0.1,0,0.1-0.1,0.1-0.2c0,0,0,0,0,0c-1.1-0.9-1.8-2.1-2.1-3.4
		c-0.2-0.8-0.3-1.5-0.2-2.4c0.2-2.3,1.3-4.1,3.2-5.4c0.1,0,0.1-0.1,0-0.2c0,0,0,0,0,0c-1.2-0.7-2.4-1-3.8-0.9
		C29.3,49,27.3,57.3,32.7,60.4z"/>
	<path class="st1" d="M68.2,54.9c0,4.1-3.3,7.4-7.4,7.4h0c-4.1,0-7.4-3.3-7.4-7.4l0,0c0-4.1,3.3-7.4,7.4-7.4l0,0
		C64.9,47.5,68.2,50.8,68.2,54.9L68.2,54.9z M57.6,60.5c1.7,1,3.6,1.1,5.6,0.4c0.1,0,0.1-0.1,0.1-0.2c0,0,0,0,0,0
		c-0.8-0.7-1.4-1.5-1.8-2.5c-0.7-1.7-0.8-3.6-0.1-5.3c0.5-1.4,1.5-2.5,2.8-3.3c0.1,0,0.1-0.1,0-0.2c0,0,0,0,0,0
		c-1.9-1.1-3.9-1.2-5.8-0.4C53.3,51.1,53,57.8,57.6,60.5z"/>
	<path class="st4" d="M32.7,60.4c-5.4-3.1-3.4-11.5,2.8-12c1.3-0.1,2.6,0.2,3.8,0.9c0.1,0,0.1,0.1,0,0.2c0,0,0,0,0,0
		c-2,1.3-3,3.1-3.2,5.4c-0.1,0.8,0,1.6,0.2,2.4c0.4,1.3,1.1,2.4,2.1,3.4c0,0,0.1,0.1,0,0.2c0,0,0,0,0,0
		C36.5,61.7,34.6,61.5,32.7,60.4z"/>
	<path class="st4" d="M57.6,60.5c-4.6-2.7-4.3-9.4,0.7-11.5c1.9-0.8,3.8-0.7,5.8,0.4c0.1,0,0.1,0.1,0,0.2c0,0,0,0,0,0
		c-1.3,0.8-2.2,2-2.8,3.3c-0.7,1.7-0.7,3.6,0.1,5.3c0.4,1,1,1.8,1.8,2.5c0.1,0,0.1,0.1,0,0.2c0,0,0,0,0,0
		C61.2,61.6,59.3,61.5,57.6,60.5z"/>
	<path class="st1" d="M48.3,65.1c-0.5,0.7-1.3,1-2.2,1c-1.3,0-2.7-0.4-3.1-1.9c-0.1-0.6,0.5-1.2,0.9-0.6c0,0,0,0,0,0.1
		c0,0.6,0.2,1,0.8,1.2c2.3,0.7,3.4-0.3,3.1-2.7c0,0,0-0.1,0-0.1c-0.8-0.7,1.2-1.3,1.3-0.3c0,0,0,0.1,0,0.1c-0.1,0.1-0.2,0.2-0.2,0.3
		c-0.2,1.2,0,2.7,1.6,2.8c0.9,0.1,2.5-0.1,2.3-1.5c0-0.1,0-0.1,0.1-0.1c0.3-0.2,0.6-0.2,0.7,0c0.4,0.4,0,1.3-0.3,1.6
		c-0.7,0.9-2.4,1.1-3.4,0.8c-0.6-0.1-1-0.4-1.4-0.9C48.4,65,48.3,65,48.3,65.1C48.3,65.1,48.3,65.1,48.3,65.1z"/>
	<path class="st5" d="M57.2,64.3L57.2,64.3c0.2,0.1,0.2,0.2,0.2,0.3l-0.8,2.6c0,0.1-0.1,0.2-0.2,0.1l-0.1,0c-0.1,0-0.2-0.1-0.1-0.2
		l0.8-2.6C57,64.3,57.1,64.2,57.2,64.3z"/>
	<path class="st5" d="M58.5,64.3L58.5,64.3c0.2,0.1,0.2,0.2,0.2,0.3l-1.3,3.3c0,0.1-0.1,0.1-0.2,0.1l-0.1,0c-0.1,0-0.1-0.1-0.1-0.2
		l1.3-3.3C58.3,64.3,58.4,64.2,58.5,64.3z"/>
	<path class="st5" d="M32.5,67.3c-0.2-0.1-0.3-0.2-0.2-0.4c0.2-0.9,0.5-1.7,0.8-2.6c0,0,0-0.1,0.1-0.1c0.3-0.1,0.4,0.2,0.3,0.4
		c-0.3,0.8-0.6,1.7-0.8,2.6C32.7,67.3,32.6,67.3,32.5,67.3C32.5,67.3,32.5,67.3,32.5,67.3z"/>
	<path class="st5" d="M34.6,64.3L34.6,64.3c0.1,0.1,0.2,0.2,0.1,0.3l-1.3,3.2c0,0.1-0.2,0.2-0.3,0.1l0,0c-0.1,0-0.2-0.2-0.1-0.3
		l1.3-3.2C34.4,64.3,34.5,64.2,34.6,64.3z"/>
	<path class="st5" d="M35.8,64.4L35.8,64.4c0.1,0.1,0.2,0.2,0.1,0.3l-1.5,3.5c0,0.1-0.2,0.1-0.3,0.1l0,0c-0.1,0-0.1-0.2-0.1-0.3
		l1.5-3.5C35.6,64.4,35.7,64.3,35.8,64.4z"/>
	<path class="st5" d="M59.7,64.4L59.7,64.4c0.2,0.1,0.2,0.2,0.2,0.3l-1.6,3.6c0,0.1-0.1,0.1-0.2,0.1l-0.1,0c-0.1,0-0.1-0.1-0.1-0.2
		l1.6-3.6C59.5,64.4,59.6,64.3,59.7,64.4z"/>
	<path class="st5" d="M37.5,64.7l0.1,0c0.1,0,0.1,0.1,0.1,0.2l-1.1,3c0,0.1-0.1,0.1-0.2,0.1l-0.1,0c-0.1,0-0.1-0.1-0.1-0.2l1.1-3
		C37.3,64.7,37.4,64.6,37.5,64.7z"/>
	<path class="st5" d="M60.2,67.9c0,0-0.1-0.1-0.1-0.1c0.2-1,0.7-2.1,1.1-3.1c0,0,0-0.1,0.1-0.1c0.3-0.1,0.4,0,0.3,0.3
		c-0.2,0.8-0.8,1.8-1,2.8C60.6,68,60.4,68.1,60.2,67.9z"/>
	<path class="st5" d="M36.5,64.7L36.5,64.7c0.1,0.1,0.2,0.2,0.2,0.3l-1.2,2.8c0,0.1-0.2,0.2-0.3,0.1l0,0c-0.1,0-0.2-0.2-0.1-0.3
		l1.2-2.8C36.3,64.7,36.4,64.7,36.5,64.7z"/>
	<path class="st5" d="M60.5,64.7L60.5,64.7c0.1,0.1,0.2,0.2,0.1,0.3l-1.2,2.8c0,0.1-0.2,0.2-0.3,0.1l0,0c-0.1,0-0.2-0.2-0.1-0.3
		l1.2-2.8C60.2,64.7,60.4,64.7,60.5,64.7z"/>
	<path class="st5" d="M37.6,67.9c-0.1,0-0.1,0-0.1-0.1c0-0.2,0-0.4,0.1-0.6c0.3-0.6,0.5-1.3,0.7-2c0,0,0-0.1,0.1-0.1
		c0.3-0.1,0.4,0.1,0.3,0.3c-0.2,0.7-0.5,1.3-0.8,2c0,0,0,0,0,0.1C37.9,67.7,37.8,67.8,37.6,67.9z"/>
	<path class="st5" d="M62.5,65.1l0.1,0c0.1,0,0.1,0.1,0.1,0.2l-0.9,2.4c0,0.1-0.1,0.1-0.2,0.1l-0.1,0c-0.1,0-0.1-0.1-0.1-0.2
		l0.9-2.4C62.3,65.1,62.4,65.1,62.5,65.1z"/>
	<path class="st1" d="M62.2,96.4c-0.1,0-0.2,0-0.3,0.1c-2.1,0.5-4.3,0.9-6.4,1.2c-0.5-0.2-0.9-0.4-1.4-0.7c-1.9-1.1-2.8-3.3-2.7-5.3
		c0.2-3.4,3.1-6.5,5.7-8.4c0.4-0.3,0.7-0.6,1-0.1c0.1,0.2,0.1,0.4-0.1,0.5c-3,2.2-7.1,6.4-5.2,10.5c1.9,4,6.5,2.8,9.5,1.1
		c0.8-0.4,1.3-0.9,1.7-1.4c0,0,0,0,0.1,0c0.6-0.1,0.8,0.4,0.5,0.8C64.2,95.3,63,96,62.2,96.4z"/>
	<path class="st1" d="M43.9,97.5l-0.2,0.1c-2.4-0.3-4.7-0.8-7-1.5c0-0.1-3.4-1.7-1.6-2.4c0.1,0,0.1,0,0.1,0c1.2,1.6,3.7,2.6,5.6,3
		c3.1,0.6,5.7-0.9,6.1-4.1c0.5-3.5-3.1-7.1-5.6-9c0,0,0,0,0-0.1c-0.1-0.4,0-0.7,0.4-0.7c0,0,0.1,0,0.1,0c3.5,2.4,7.7,7.1,5.5,11.8
		C46.6,96.1,45.5,97.1,43.9,97.5z"/>
	<path class="st0" d="M18.3,18.6c-1.3-0.2-2.5-0.3-3.8-0.4c-0.1,0-0.1,0-0.1,0.1"/>
	<path class="st0" d="M91.3,67.3c0,0,0.1,0,0.1,0c0.7-0.3,0.5-0.7,0.1-1c-2-1.4-4.2-2.3-6.6-2.9c-0.1,0-0.1-0.1-0.1-0.1"/>
	<path class="st0" d="M80.6,69.7c0,0,0.1,0,0.1,0l3.2,1.5c0,0,0.1,0,0.1,0c0.5-0.4,0.4-0.7-0.1-1c-0.8-0.4-1.6-0.8-2.5-1.2
		c-0.1,0-0.1-0.1-0.1-0.2"/>
	<path class="st0" d="M76.4,72.8"/>
	<path class="st0" d="M75.4,73.3c1.6,1.3,3.2,2.6,4.5,4.2c0.3,0.4,1,0.1,0.8-0.4c0-0.1-0.1-0.3-0.3-0.4"/>
	<path class="st0" d="M72.2,74.5"/>
	<path class="st0" d="M7.4,66.6c-0.5,0.3,0,1.1,0.6,0.7"/>
</g>
</svg>
